<svg class="css-1j8o68f" viewBox="10 30 380 113.8"><defs id="SvgjsDefs3246"></defs><g id="SvgjsG3247" featurekey="DUScZC-0" transform="matrix(0.8264462288819476,0,0,0.8264462288819476,8.842975299269288,28.67768601408487)" fill="#14f195"><path xmlns="http://www.w3.org/2000/svg" d="M61.9,1.6C61.9,1.6,61.9,1.6,61.9,1.6H1.4v80.3C1.4,95.9,9,109,21.2,116l40.7,23.3l40.7-23.3c12.2-7,19.8-20.1,19.8-34.2  V1.6H61.9z M116.4,32.2L73.2,7.6h43.2V32.2z M61.9,66.8L10.4,37.4L61.9,8l51.5,29.4L61.9,66.8z M50.6,7.6L7.4,32.2V7.6H50.6z   M7.4,81.8V42.6L58.9,72v58.7l-34.7-19.8C13.8,104.9,7.4,93.8,7.4,81.8z M99.5,110.8l-34.7,19.8V72l51.5-29.4v39.3  C116.4,93.8,109.9,104.9,99.5,110.8z"></path></g><g id="SvgjsG3248" featurekey="MdC7pD-0" transform="matrix(4.208757073811809,0,0,4.208757073811809,136.80126288320153,31.831797183454245)" fill="#ffffff"><path d="M9.78 5.98 l0.000019531 13.74 c-0.48 0.10666 -0.94666 0.18666 -1.4 0.24 s-0.86668 0.09334 -1.24 0.12 s-0.69334 0.04 -0.96 0.04 l-0.54 0 c-0.90666 0 -1.67 -0.14 -2.29 -0.42 s-1.12 -0.66 -1.5 -1.14 s-0.65666 -1.0367 -0.83 -1.67 s-0.26 -1.31 -0.26 -2.03 c0 -0.92 0.11666 -1.71 0.35 -2.37 s0.56 -1.2033 0.98 -1.63 s0.92 -0.74332 1.5 -0.94998 s1.2233 -0.31 1.93 -0.31 c0.12 0 0.25666 0.01 0.41 0.03 s0.3 0.04334 0.44 0.07 s0.27 0.05666 0.39 0.09 s0.21334 0.07 0.28 0.11 l0 -1.18 l0.06 -0.26 l-1.8 0 l1.34 -2.48 l3.14 0 z M5.96 17.44 c0.2 0 0.39334 -0.0066602 0.58 -0.02 s0.35332 -0.03334 0.49998 -0.06 l0 -5.12 c-0.09334 -0.01334 -0.2 -0.03334 -0.32 -0.06 c-0.10666 -0.02666 -0.23 -0.04666 -0.37 -0.06 s-0.29666 -0.02 -0.47 -0.02 c-0.62666 0 -1.1533 0.21334 -1.58 0.64 s-0.64 1.1333 -0.64 2.12 c0 0.49334 0.06 0.90668 0.18 1.24 s0.28334 0.6 0.49 0.8 s0.45 0.34 0.73 0.42 s0.58 0.12 0.9 0.12 z M16.24 9.44 c0.69334 0 1.3166 0.096622 1.87 0.28996 s1.0167 0.50668 1.39 0.94002 s0.66 0.99 0.86 1.67 s0.3 1.5 0.3 2.46 l0 0.31 l-0.04 0.63 l-5.6 0 l-0.42 -0.06 c0.01334 0.38666 0.05668 0.69666 0.13002 0.93 s0.18 0.41668 0.32 0.55002 s0.31 0.22668 0.51 0.28002 s0.42666 0.08668 0.68 0.10002 c0.41334 0.02666 0.77 -0.03334 1.07 -0.18 s0.58334 -0.44666 0.85 -0.9 c0.41334 0.13334 0.79334 0.26 1.14 0.38 c0.29334 0.10666 0.56 0.2 0.8 0.28 s0.36 0.11334 0.36 0.1 c-0.48 1 -1.0633 1.73 -1.75 2.19 s-1.51 0.69 -2.47 0.69 c-0.70666 0 -1.3467 -0.09334 -1.92 -0.28 s-1.06 -0.49 -1.46 -0.91 s-0.71 -0.96666 -0.93 -1.64 s-0.33 -1.4967 -0.33 -2.47 c0 -0.94666 0.11 -1.7567 0.33 -2.43 s0.53 -1.2267 0.93 -1.66 s0.88666 -0.75334 1.46 -0.96 s1.2133 -0.31 1.92 -0.31 z M17.34 13.440000000000001 l0.30004 0.04 c-0.02666 -0.46666 -0.15 -0.83 -0.37 -1.09 s-0.56334 -0.39 -1.03 -0.39 c-0.53334 0 -0.91668 0.13 -1.15 0.39 s-0.37668 0.62334 -0.43002 1.09 c0.06666 -0.01334 0.12666 -0.02334 0.18 -0.03 s0.11334 -0.01 0.18 -0.01 l2.32 0 z M27.62 15.42 c-0.13334 -0.02666 -0.2733 -0.04338 -0.41996 -0.050038 s-0.27332 -0.01 -0.37998 -0.01 c-0.56 0 -1.0133 0.08666 -1.36 0.26 s-0.52 0.47334 -0.52 0.9 c0 0.26666 0.06334 0.47666 0.19 0.63 s0.28332 0.26668 0.46998 0.34002 s0.38332 0.11668 0.58998 0.13002 s0.38332 0.02 0.52998 0.02 c0.26666 0 0.56666 -0.03334 0.9 -0.1 l0 -2.12 z M26.580000000000002 13.219999999999999 c0.10666 0 0.24996 0.0033594 0.42996 0.01002 s0.38334 0.01666 0.61 0.03 c-0.01334 -0.52 -0.19668 -0.85666 -0.55002 -1.01 s-0.81 -0.23 -1.37 -0.23 c-0.30666 0 -0.66 0.03666 -1.06 0.11 s-0.83334 0.18334 -1.3 0.33 l-0.32 -1.1 c-0.04 -0.14666 -0.09666 -0.36 -0.17 -0.64 s-0.12334 -0.5 -0.15 -0.66 c0.66666 -0.22666 1.2967 -0.39 1.89 -0.49 s1.13 -0.15 1.61 -0.15 c1.4133 0 2.5066 0.33666 3.28 1.01 s1.16 1.75 1.16 3.23 l0 5.86 c-0.52 0.14666 -1.12 0.29 -1.8 0.43 s-1.4133 0.21 -2.2 0.21 c-0.69334 0 -1.3233 -0.06 -1.89 -0.18 s-1.0533 -0.32 -1.46 -0.6 s-0.72 -0.64666 -0.94 -1.1 s-0.33 -1.0067 -0.33 -1.66 s0.13666 -1.2 0.41 -1.64 s0.62668 -0.79 1.06 -1.05 s0.92 -0.44334 1.46 -0.55 s1.0833 -0.16 1.63 -0.16 z M32.28 9.56 l3.04 -0.000039062 l0 5.44 c0 0.46666 0.04 0.85666 0.12 1.17 s0.2 0.56 0.36 0.74 s0.35666 0.30666 0.59 0.38 s0.51 0.11 0.83 0.11 c0.38666 0 0.73332 -0.02 1.04 -0.06 l-0.04 -0.36 l0 -7.42 l3.04 0 l0 9.88 c-0.49334 0.17334 -1.0833 0.32668 -1.77 0.46002 s-1.39 0.2 -2.11 0.2 c-0.68 0 -1.33 -0.05334 -1.95 -0.16 s-1.1633 -0.33332 -1.63 -0.67998 s-0.83666 -0.85 -1.11 -1.51 s-0.41 -1.55 -0.41 -2.67 l0 -5.52 z M43.82 12.059999999999999 l-1.24 0 l0 -2.52 l1.24 0 l0 -2.84 l3 0 l0 2.84 l2.48 0 l-1.4 2.52 l-1.18 0 l0.1 0.64 l0 3.14 c0 0.34666 0.02334 0.62666 0.07 0.84 s0.12 0.38 0.22 0.5 s0.22666 0.20334 0.38 0.25 s0.33 0.07 0.53 0.07 c0.14666 0 0.32666 -0.01666 0.54 -0.05 s0.44 -0.07 0.68 -0.11 l0.16 1.34 l0.12 1.2 c-0.38666 0.08 -0.74 0.14 -1.06 0.18 s-0.64666 0.06 -0.98 0.06 c-1.24 0 -2.16 -0.28666 -2.76 -0.86 s-0.9 -1.52 -0.9 -2.84 l0 -4.36 z M51.1 8.4 c0 0.01334 -0.09002 0.019961 -0.27002 0.019961 l-0.59 0 l-0.84 0 l1.36 -2.44 l3.36 0 l0 4.52 c0.28 -0.26666 0.62666 -0.50332 1.04 -0.70998 s0.90668 -0.31 1.48 -0.31 c1.1867 0 2.07 0.33 2.65 0.99 s0.87 1.71 0.87 3.15 l0 6.38 l-3.04 0 l0 -5.98 c0 -0.52 -0.12 -0.93334 -0.36 -1.24 s-0.60666 -0.46 -1.1 -0.46 c-0.42666 0 -0.79 0.11666 -1.09 0.35 s-0.45 0.67668 -0.45 1.33 l0 6 l-3.06 0 z"></path></g></svg>