<svg class="css-1j8o68f" viewBox="2.5 2.857 200.072 245.893"><path xmlns="http://www.w3.org/2000/svg" fill="#796AC0" d="M100.195 31.04H10.91v118.506c0 20.662 11.216 39.995 29.22 50.325l60.066 34.386 60.066-34.386c18.005-10.33 29.22-29.663 29.22-50.472V31.04h-89.286zm80.431 45.159-63.754-36.305h63.754v36.305zm-80.43 51.063L24.19 83.873l76.004-43.388L176.2 83.873l-76.004 43.389zM83.518 39.894 19.764 76.199V39.894h63.755zM19.764 149.398V91.547l76.004 43.389v86.629l-51.21-29.221a49.582 49.582 0 0 1-24.793-42.946zm135.921 42.799-51.21 29.22v-86.481l76.003-43.39v58c.148 17.562-9.445 33.943-24.793 42.65z"/></svg>