<svg id="visual" viewBox="0 0 900 600" width="900" height="600" xmlns="http://www.w3.org/2000/svg" xmlns:xlink="http://www.w3.org/1999/xlink" version="1.1"><rect x="0" y="0" width="900" height="600" fill="#FFFFFF"></rect><path d="M0 376L21.5 387.5C43 399 86 422 128.8 424C171.7 426 214.3 407 257.2 401.8C300 396.7 343 405.3 385.8 403.2C428.7 401 471.3 388 514.2 393.3C557 398.7 600 422.3 642.8 431C685.7 439.7 728.3 433.3 771.2 424C814 414.7 857 402.3 878.5 396.2L900 390L900 601L878.5 601C857 601 814 601 771.2 601C728.3 601 685.7 601 642.8 601C600 601 557 601 514.2 601C471.3 601 428.7 601 385.8 601C343 601 300 601 257.2 601C214.3 601 171.7 601 128.8 601C86 601 43 601 21.5 601L0 601Z" fill="#e0e0e0"></path><path d="M0 420L21.5 428.5C43 437 86 454 128.8 459C171.7 464 214.3 457 257.2 454.7C300 452.3 343 454.7 385.8 452.5C428.7 450.3 471.3 443.7 514.2 432.5C557 421.3 600 405.7 642.8 413.3C685.7 421 728.3 452 771.2 460.5C814 469 857 455 878.5 448L900 441L900 601L878.5 601C857 601 814 601 771.2 601C728.3 601 685.7 601 642.8 601C600 601 557 601 514.2 601C471.3 601 428.7 601 385.8 601C343 601 300 601 257.2 601C214.3 601 171.7 601 128.8 601C86 601 43 601 21.5 601L0 601Z" fill="#d9d8d8"></path><path d="M0 432L21.5 438C43 444 86 456 128.8 465.7C171.7 475.3 214.3 482.7 257.2 486.3C300 490 343 490 385.8 479.5C428.7 469 471.3 448 514.2 448.8C557 449.7 600 472.3 642.8 481.8C685.7 491.3 728.3 487.7 771.2 476.2C814 464.7 857 445.3 878.5 435.7L900 426L900 601L878.5 601C857 601 814 601 771.2 601C728.3 601 685.7 601 642.8 601C600 601 557 601 514.2 601C471.3 601 428.7 601 385.8 601C343 601 300 601 257.2 601C214.3 601 171.7 601 128.8 601C86 601 43 601 21.5 601L0 601Z" fill="#d2d0d1"></path><path d="M0 506L21.5 506.3C43 506.7 86 507.3 128.8 501C171.7 494.7 214.3 481.3 257.2 484.8C300 488.3 343 508.7 385.8 517.3C428.7 526 471.3 523 514.2 522.8C557 522.7 600 525.3 642.8 520.7C685.7 516 728.3 504 771.2 503.7C814 503.3 857 514.7 878.5 520.3L900 526L900 601L878.5 601C857 601 814 601 771.2 601C728.3 601 685.7 601 642.8 601C600 601 557 601 514.2 601C471.3 601 428.7 601 385.8 601C343 601 300 601 257.2 601C214.3 601 171.7 601 128.8 601C86 601 43 601 21.5 601L0 601Z" fill="#cac8c9"></path><path d="M0 524L21.5 520C43 516 86 508 128.8 512C171.7 516 214.3 532 257.2 536.8C300 541.7 343 535.3 385.8 528.7C428.7 522 471.3 515 514.2 511.5C557 508 600 508 642.8 512.3C685.7 516.7 728.3 525.3 771.2 528.8C814 532.3 857 530.7 878.5 529.8L900 529L900 601L878.5 601C857 601 814 601 771.2 601C728.3 601 685.7 601 642.8 601C600 601 557 601 514.2 601C471.3 601 428.7 601 385.8 601C343 601 300 601 257.2 601C214.3 601 171.7 601 128.8 601C86 601 43 601 21.5 601L0 601Z" fill="#c3c0c2"></path><path d="M0 536L21.5 536.7C43 537.3 86 538.7 128.8 542.8C171.7 547 214.3 554 257.2 557.2C300 560.3 343 559.7 385.8 561C428.7 562.3 471.3 565.7 514.2 565.2C557 564.7 600 560.3 642.8 560.8C685.7 561.3 728.3 566.7 771.2 563.8C814 561 857 550 878.5 544.5L900 539L900 601L878.5 601C857 601 814 601 771.2 601C728.3 601 685.7 601 642.8 601C600 601 557 601 514.2 601C471.3 601 428.7 601 385.8 601C343 601 300 601 257.2 601C214.3 601 171.7 601 128.8 601C86 601 43 601 21.5 601L0 601Z" fill="#bcb8ba"></path></svg>