<?xml version="1.0" standalone="no"?>
<!DOCTYPE svg PUBLIC "-//W3C//DTD SVG 20010904//EN"
 "http://www.w3.org/TR/2001/REC-SVG-20010904/DTD/svg10.dtd">
<svg version="1.0" xmlns="http://www.w3.org/2000/svg"
 width="984.000000pt" height="984.000000pt" viewBox="0 0 984.000000 984.000000"
 preserveAspectRatio="xMidYMid meet">
<metadata>
Created by potrace 1.14, written by Peter Selinger 2001-2017
</metadata>
<g transform="translate(0.000000,984.000000) scale(0.100000,-0.100000)"
fill="#000000" stroke="none">
<path d="M1250 6288 c0 -2139 2 -2449 16 -2568 34 -296 109 -544 245 -811 173
-339 442 -644 759 -861 52 -36 361 -217 685 -403 325 -185 873 -499 1218 -697
346 -198 636 -362 646 -365 10 -2 208 105 487 265 258 148 798 457 1199 687
402 230 765 440 808 466 357 222 681 590 869 986 58 123 139 362 167 496 52
243 51 167 51 2794 l0 2443 -3575 0 -3575 0 0 -2432z m2575 1885 c-1779 -1013
-2163 -1232 -2182 -1242 l-23 -12 0 716 0 715 1257 0 1258 0 -310 -177z m4215
-539 c0 -577 -2 -715 -13 -711 -7 2 -303 170 -657 372 -355 202 -906 516
-1225 698 -319 182 -589 336 -600 344 -16 11 184 13 1238 13 l1257 0 0 -716z
m-1695 -174 c820 -468 1493 -854 1497 -858 5 -5 -2914 -1684 -3001 -1725 -11
-6 -432 230 -1529 857 l-1513 864 1513 865 c1053 601 1518 862 1528 857 8 -5
686 -391 1505 -860z m-3072 -2125 l1366 -780 1 -1728 0 -1729 -32 20 c-18 11
-491 281 -1052 601 -560 320 -1039 596 -1065 613 -162 110 -362 300 -479 456
-173 232 -294 501 -360 807 l-26 120 -3 1282 -4 1282 144 -82 c80 -45 759
-433 1510 -862z m4747 -1575 c-68 -602 -403 -1138 -905 -1448 -96 -59 -2075
-1189 -2098 -1198 -16 -6 -17 114 -15 1716 l3 1722 1510 863 1510 863 3 -1212
c2 -819 -1 -1242 -8 -1306z"/>
</g>
</svg>
